<svg width="180" height="180" viewBox="0 0 180 180" fill="none" xmlns="http://www.w3.org/2000/svg">
<path d="M16 0C16.5523 0 17 0.447715 17 1V155C17 158.866 20.134 162 24 162H155C158.866 162 162 158.866 162 155V24C162 20.134 158.866 17 155 17H105C101.134 17 98 20.134 98 24V92C98 92.5523 97.5523 93 97 93H82C81.4477 93 81 92.5523 81 92V7C81 3.13401 84.134 0 88 0H172C175.866 0 179 3.13401 179 7V172C179 175.866 175.866 179 172 179H7C3.134 179 0 175.866 0 172V7C0 3.134 3.13401 0 7 0H16Z" fill="black"/>
<path d="M92.2319 120.446C90.6943 121.883 88.3057 121.883 86.7681 120.446L47.9725 84.1718C45.3219 81.6935 47.0757 77.25 50.7044 77.25L128.296 77.25C131.924 77.25 133.678 81.6935 131.027 84.1718L92.2319 120.446Z" fill="black"/>
</svg>
