<svg width="180" height="180" viewBox="0 0 180 180" fill="none" xmlns="http://www.w3.org/2000/svg">
<path d="M15.9891 0.231128C19.9181 0.057878 24.0761 0.155128 28.0304 0.186378L27.9988 108.216L27.9993 133.402C27.9993 138.095 27.7408 143.241 28.4006 147.851C28.7478 150.278 32.6864 151.115 34.6639 151.129C42.6231 151.185 50.5806 151.163 58.5398 151.164L104.646 151.169L131.573 151.169C135.582 151.169 147.171 151.489 150.424 150.544C151.481 148.004 151.076 126.937 151.074 122.876L151.066 79.1204L151.076 50.9966C151.079 46.1691 151.689 32.7631 150.449 29.1079C150.346 28.8069 150.156 28.6564 149.861 28.5416C147.846 27.7606 111.962 27.9046 107.551 28.1489C106.418 28.2116 105.319 28.3221 104.258 28.7489C103.121 30.1406 103.507 45.2349 103.509 48.1561L103.528 78.4276C113.797 78.4801 124.067 78.4674 134.336 78.3891C129.539 83.4764 123.867 88.9159 118.886 93.8986L89.5156 123.296C85.9584 119.232 78.5989 112.299 74.5689 108.268L44.6531 78.3569C52.7181 78.6189 61.5294 78.4629 69.6511 78.4654C71.5999 78.4791 73.5821 78.4499 75.5339 78.4394L75.5526 34.3741C75.5461 27.3366 75.1444 19.7264 75.8494 12.7879C77.3884 -2.36137 94.3101 0.15913 105.071 0.15438L131.338 0.147628L152.884 0.15113C161.081 0.15438 172.519 -1.29037 176.974 7.23288C178.009 9.21313 178.741 11.8514 178.821 14.0914C179.154 23.2249 178.994 32.4219 178.989 41.5676V93.9586L178.994 140.972C178.994 149.144 179.234 157.492 178.769 165.584C178.294 173.85 172.549 178.64 164.574 178.924C155.616 179.242 146.626 179.085 137.675 179.085L85.6021 179.087L39.0163 179.095C30.5266 179.104 21.9614 179.316 13.4941 178.836C5.69985 178.394 0.555851 172.921 0.263601 165.181C-0.0968991 155.633 0.0793516 146.043 0.0783516 136.484L0.0703484 82.4801L0.0700966 37.3136C0.0710966 29.5229 -0.192904 21.4629 0.297346 13.7084C0.914596 3.95138 7.3216 0.747378 15.9891 0.231128Z" fill="#232323"/>
</svg>
