<svg width="24" height="20" viewBox="0 0 24 20" fill="none" xmlns="http://www.w3.org/2000/svg">
<g clip-path="url(#clip0_1169_3511)">
<path d="M4 18C3.45 18 2.975 17.8083 2.575 17.425C2.19167 17.025 2 16.55 2 16V6C2 5.45 2.19167 4.98333 2.575 4.6C2.975 4.2 3.45 4 4 4H12.175C12.0917 4.36667 12.0417 4.7 12.025 5C12.0083 5.3 12.0083 5.63333 12.025 6H4V16H20V11.825C20.3667 11.7417 20.7167 11.6333 21.05 11.5C21.3833 11.35 21.7 11.175 22 10.975V16C22 16.55 21.8 17.025 21.4 17.425C21.0167 17.8083 20.55 18 20 18H4ZM18.5 10C18.4 10 18.3333 9.95 18.3 9.85C18.0333 8.83333 17.525 7.95833 16.775 7.225C16.0417 6.475 15.1667 5.96667 14.15 5.7C14.05 5.66667 14 5.6 14 5.5C14 5.4 14.05 5.33333 14.15 5.3C15.1667 5.05 16.0417 4.55 16.775 3.8C17.525 3.05 18.0333 2.16667 18.3 1.15C18.3333 1.05 18.4 1 18.5 1C18.6 1 18.6667 1.05 18.7 1.15C18.9667 2.16667 19.4667 3.05 20.2 3.8C20.95 4.53333 21.8333 5.03333 22.85 5.3C22.95 5.31667 23 5.38333 23 5.5C23 5.6 22.95 5.66667 22.85 5.7C21.8333 5.96667 20.95 6.475 20.2 7.225C19.4667 7.95833 18.9667 8.83333 18.7 9.85C18.6833 9.95 18.6167 10 18.5 10Z" fill="#444746"/>
</g>
<defs>
<clipPath id="clip0_1169_3511">
<rect width="24" height="20" fill="white"/>
</clipPath>
</defs>
</svg>
